<svg xmlns="http://www.w3.org/2000/svg" style="display:none">
  <symbol id="icon-heart" viewBox="0 0 24 24">
    <path fill="currentColor" d="M12 20.3c-.3 0-.6-.1-.8-.3C7.7 17.2 3 13.1 3 9.1 3 6.3 5.1 4 7.8 4c1.7 0 3.2.9 4.2 2.3C13 4.9 14.5 4 16.2 4 18.9 4 21 6.3 21 9.1c0 4-4.7 8.1-8.2 10.9-.2.2-.5.3-.8.3Z"/>
  </symbol>
  <symbol id="icon-leaf" viewBox="0 0 24 24">
    <path fill="currentColor" d="M20 4C10 4 4 10 4 20c10 0 16-6 16-16Z"/>
    <path fill="none" stroke="#fff" stroke-linecap="round" stroke-width="1.4" d="M6.5 17.5C10 13.5 13.5 10 17.5 6.5"/>
  </symbol>
  <symbol id="icon-camera" viewBox="0 0 24 24">
    <rect x="3" y="7" width="18" height="13" rx="3" fill="none" stroke="currentColor" stroke-width="1.6" stroke-linejoin="round"/>
    <path fill="none" stroke="currentColor" stroke-width="1.6" stroke-linecap="round" stroke-linejoin="round" d="M8.2 7 9.8 4.6h4.4L15.8 7"/>
    <circle cx="12" cy="13.5" r="3.4" fill="none" stroke="currentColor" stroke-width="1.6"/>
  </symbol>
  <symbol id="icon-chat" viewBox="0 0 24 24">
    <path fill="none" stroke="currentColor" stroke-width="1.6" stroke-linecap="round" stroke-linejoin="round" d="M4 12a8 8 0 1 1 3 6.2L4 20l1.2-3.4A7.96 7.96 0 0 1 4 12Z"/>
  </symbol>
  <symbol id="icon-spine" viewBox="0 0 24 24">
    <line x1="12" y1="3" x2="12" y2="21" stroke="currentColor" stroke-width="1.6" stroke-linecap="round"/>
    <circle cx="12" cy="6" r="1.3" fill="currentColor"/>
    <circle cx="12" cy="10" r="1.3" fill="currentColor"/>
    <circle cx="12" cy="14" r="1.3" fill="currentColor"/>
    <circle cx="12" cy="18" r="1.3" fill="currentColor"/>
  </symbol>
  <symbol id="icon-cross" viewBox="0 0 24 24">
    <circle cx="12" cy="12" r="9" fill="none" stroke="currentColor" stroke-width="1.6"/>
    <line x1="12" y1="7.5" x2="12" y2="16.5" stroke="currentColor" stroke-width="1.6" stroke-linecap="round"/>
    <line x1="7.5" y1="12" x2="16.5" y2="12" stroke="currentColor" stroke-width="1.6" stroke-linecap="round"/>
  </symbol>
  <symbol id="icon-spark-head" viewBox="0 0 24 24">
    <circle cx="12" cy="12" r="9" fill="none" stroke="currentColor" stroke-width="1.6"/>
    <path fill="currentColor" d="M13 7 8.5 13.5h3.2L10.8 19l5.7-7.5h-3.4Z"/>
  </symbol>
  <symbol id="icon-cane" viewBox="0 0 24 24">
    <path fill="none" stroke="currentColor" stroke-width="1.6" stroke-linecap="round" stroke-linejoin="round" d="M14 3c-2.2 0-4 1.6-4 3.6 0 1.3.8 2.4 2 3l-3 11.4"/>
  </symbol>
  <symbol id="icon-pulse" viewBox="0 0 24 24">
    <path fill="none" stroke="currentColor" stroke-width="1.6" stroke-linecap="round" stroke-linejoin="round" d="M3 13h3.5l2-4 3 8 2-6 1.5 2H21"/>
  </symbol>
  <symbol id="icon-two-hearts" viewBox="0 0 24 24">
    <use href="#icon-heart" transform="translate(-1.5,-1.5) scale(0.62)"/>
    <use href="#icon-heart" transform="translate(9,9) scale(0.55)"/>
  </symbol>
  <symbol id="icon-baby-bottle" viewBox="0 0 24 24">
    <rect x="9.5" y="4.5" width="5" height="4" rx="1.3" fill="none" stroke="currentColor" stroke-width="1.6"/>
    <rect x="7.5" y="8.5" width="9" height="11" rx="2.6" fill="none" stroke="currentColor" stroke-width="1.6"/>
    <line x1="7.5" y1="13.5" x2="16.5" y2="13.5" stroke="currentColor" stroke-width="1.6"/>
  </symbol>
  <symbol id="icon-home-heart" viewBox="0 0 24 24">
    <path fill="none" stroke="currentColor" stroke-width="1.6" stroke-linecap="round" stroke-linejoin="round" d="M4 11.5 12 5l8 6.5"/>
    <path fill="none" stroke="currentColor" stroke-width="1.6" stroke-linecap="round" stroke-linejoin="round" d="M6 10.5V19a1 1 0 0 0 1 1h4v-5.5h2V20h4a1 1 0 0 0 1-1v-8.5"/>
    <path fill="currentColor" d="M12 9.4c-.4-.6-1.5-.6-1.5.4 0 .7 1.5 1.6 1.5 1.6s1.5-.9 1.5-1.6c0-1-1.1-1-1.5-.4Z"/>
  </symbol>
  <symbol id="icon-check" viewBox="0 0 24 24">
    <circle cx="12" cy="12" r="10" fill="none" stroke="currentColor" stroke-width="1.6"/>
    <path fill="none" stroke="currentColor" stroke-width="2.2" stroke-linecap="round" stroke-linejoin="round" d="M7.5 12.5l3 3 6-7"/>
  </symbol>
</svg>
